<svg xmlns="http://www.w3.org/2000/svg" width="100" height="100"><defs><linearGradient id="b" x1="0%" x2="100%" y1="0%" y2="0%"><stop offset="0%" style="stop-color:#f0b81f;stop-opacity:1"/><stop offset="15%" style="stop-color:#f0d948;stop-opacity:0"/><stop offset="75%" style="stop-color:#f0d948;stop-opacity:0"/><stop offset="100%" style="stop-color:#f0b81f;stop-opacity:1"/></linearGradient><linearGradient id="c" x1="0%" x2="0%" y1="0%" y2="100%"><stop offset="0%" style="stop-color:#f0b81f;stop-opacity:1"/><stop offset="15%" style="stop-color:#f0d948;stop-opacity:0"/><stop offset="75%" style="stop-color:#f0d948;stop-opacity:0"/><stop offset="100%" style="stop-color:#f0b81f;stop-opacity:1"/></linearGradient><radialGradient id="a" cx="50%" cy="50%" r="60%" fx="50%" fy="50%"><stop offset="0%" style="stop-color:#f0d948;stop-opacity:0"/><stop offset="85%" style="stop-color:#f0d948;stop-opacity:0"/><stop offset="100%" style="stop-color:#f0b81f;stop-opacity:1"/></radialGradient></defs><rect width="100" height="100" fill="#f0d948" rx="22"/><rect width="100" height="100" fill="url(#a)" rx="22"/><rect width="100" height="100" fill="url(#b)" opacity=".7" rx="22"/><rect width="100" height="100" fill="url(#c)" opacity=".7" rx="22"/><circle cx="50" cy="65" r="25" fill="#30353f"/><path fill="#30353f" d="M25 77V47h-5v30z"/><clipPath id="d"><path d="M0 0h25v100H0z"/></clipPath><circle cx="20" cy="62" r="15" fill="#30353f" clip-path="url(#d)"/><path fill="#30353f" d="M75 77V47h5v30z"/><clipPath id="e"><path d="M75 0h25v100H75z"/></clipPath><circle cx="80" cy="62" r="15" fill="#30353f" clip-path="url(#e)"/><clipPath id="f"><path d="M0 0h100v47.2H0z"/></clipPath><circle cx="50" cy="47" r="27.5" fill="none" stroke="#30353f" stroke-width="5" clip-path="url(#f)"/></svg>